Format                         : AVI
Format/Info                    : Audio Video Interleave
Format profile                 : OpenDML
File size                      : 4.14 GiB
Duration                       : 1h 21mn
Overall bit rate               : 7 256 Kbps
Writing application            : Lavf51.12.1

Video
ID                             : 0
Format                         : AVC
Format/Info                    : Advanced Video Codec
Format profile                 : Baseline@L3.1
Format settings, CABAC         : No
Format settings, ReFrames      : 1 frame
Format settings, GOP           : M=1, N=12
Codec ID                       : H264
Duration                       : 1h 21mn
Bit rate                       : 6 940 Kbps
Width                          : 852 pixels
Height                         : 480 pixels
Display aspect ratio           : 16:9
Frame rate mode                : Variable
Frame rate                     : 23.976 fps
Color space                    : YUV
Chroma subsampling             : 4:2:0
Bit depth                      : 8 bits
Scan type                      : Progressive
Bits/(Pixel*Frame)             : 0.708
Stream size                    : 3.96 GiB (96%)

Audio
ID                             : 1
Format                         : MPEG Audio
Format version                 : Version 1
Format profile                 : Layer 3
Mode                           : Joint stereo
Mode extension                 : MS Stereo
Codec ID                       : 55
Codec ID/Hint                  : MP3
Duration                       : 1h 17mn
Bit rate mode                  : Constant
Bit rate                       : 320 Kbps
Channel(s)                     : 2 channels
Sampling rate                  : 44.1 KHz
Compression mode               : Lossy
Stream size                    : 178 MiB (4%)
Alignment                      : Aligned on interleaves
Interleave, duration           : 27 ms (0.66 video frame)
Interleave, preload duration   : 26 ms
Writing library                : LAME3.97

